<?xml version="1.0" encoding="UTF-8"?>
<!DOCTYPE svg
PUBLIC "-//W3C//DTD SVG 1.1//EN"
       "http://www.w3.org/Graphics/SVG/1.1/DTD/svg11.dtd">
<svg viewBox="135 112 1021 804" width="886px" height="692px" xmlns="http://www.w3.org/2000/svg" version="1.1">
   <line x1="916" y1="595" x2="906" y2="595" style="stroke:#cb0;stroke-width:1;"/>
   <line x1="890" y1="164" x2="900" y2="164" style="stroke:#cb0;stroke-width:1;"/>
   <line x1="906" y1="595" x2="890" y2="164" style="stroke:#cb0;stroke-width:1;"/>
   <line x1="908.5" y1="595" x2="912.03553390593" y2="598.53553390593" style="stroke:#cb0;stroke-width:2;"/>
   <line x1="908.5" y1="595" x2="912.03553390593" y2="591.46446609407" style="stroke:#cb0;stroke-width:2;"/>
   <line x1="895" y1="164" x2="891.46446609407" y2="167.53553390593" style="stroke:#cb0;stroke-width:2;"/>
   <line x1="895" y1="164" x2="891.46446609407" y2="160.46446609407" style="stroke:#cb0;stroke-width:2;"/>
   <line x1="916" y1="635" x2="906" y2="635" style="stroke:#b0b;stroke-width:1;"/>
   <line x1="343" y1="157" x2="333" y2="157" style="stroke:#b0b;stroke-width:1;"/>
   <line x1="906" y1="635" x2="343" y2="157" style="stroke:#b0b;stroke-width:1;"/>
   <line x1="908.5" y1="635" x2="912.03553390593" y2="638.53553390593" style="stroke:#b0b;stroke-width:2;"/>
   <line x1="908.5" y1="635" x2="912.03553390593" y2="631.46446609407" style="stroke:#b0b;stroke-width:2;"/>
   <line x1="338" y1="157" x2="341.53553390593" y2="160.53553390593" style="stroke:#b0b;stroke-width:2;"/>
   <line x1="338" y1="157" x2="341.53553390593" y2="153.46446609407" style="stroke:#b0b;stroke-width:2;"/>
   <line x1="916" y1="615" x2="906" y2="615" style="stroke:#0bf;stroke-width:1;"/>
   <line x1="668" y1="679" x2="658" y2="679" style="stroke:#0bf;stroke-width:1;"/>
   <line x1="906" y1="615" x2="668" y2="679" style="stroke:#0bf;stroke-width:1;"/>
   <line x1="908.5" y1="615" x2="912.03553390593" y2="618.53553390593" style="stroke:#0bf;stroke-width:2;"/>
   <line x1="908.5" y1="615" x2="912.03553390593" y2="611.46446609407" style="stroke:#0bf;stroke-width:2;"/>
   <line x1="663" y1="679" x2="666.53553390593" y2="682.53553390593" style="stroke:#0bf;stroke-width:2;"/>
   <line x1="663" y1="679" x2="666.53553390593" y2="675.46446609407" style="stroke:#0bf;stroke-width:2;"/>
   <line x1="240" y1="592" x2="250" y2="592" style="stroke:#333;stroke-width:1;"/>
   <line x1="890" y1="164" x2="900" y2="164" style="stroke:#333;stroke-width:1;"/>
   <line x1="250" y1="592" x2="890" y2="164" style="stroke:#333;stroke-width:1;"/>
   <line x1="247.5" y1="592" x2="243.96446609407" y2="595.53553390593" style="stroke:#333;stroke-width:2;"/>
   <line x1="247.5" y1="592" x2="243.96446609407" y2="588.46446609407" style="stroke:#333;stroke-width:2;"/>
   <line x1="895" y1="164" x2="891.46446609407" y2="167.53553390593" style="stroke:#333;stroke-width:2;"/>
   <line x1="895" y1="164" x2="891.46446609407" y2="160.46446609407" style="stroke:#333;stroke-width:2;"/>
   <line x1="240" y1="612" x2="250" y2="612" style="stroke:#b0b;stroke-width:1;"/>
   <line x1="536" y1="679" x2="546" y2="679" style="stroke:#b0b;stroke-width:1;"/>
   <line x1="250" y1="612" x2="536" y2="679" style="stroke:#b0b;stroke-width:1;"/>
   <line x1="247.5" y1="612" x2="243.96446609407" y2="615.53553390593" style="stroke:#b0b;stroke-width:2;"/>
   <line x1="247.5" y1="612" x2="243.96446609407" y2="608.46446609407" style="stroke:#b0b;stroke-width:2;"/>
   <line x1="541" y1="679" x2="537.46446609407" y2="682.53553390593" style="stroke:#b0b;stroke-width:2;"/>
   <line x1="541" y1="679" x2="537.46446609407" y2="675.46446609407" style="stroke:#b0b;stroke-width:2;"/>
   <line x1="240" y1="632" x2="250" y2="632" style="stroke:#0b0;stroke-width:1;"/>
   <line x1="906" y1="575" x2="916" y2="575" style="stroke:#0b0;stroke-width:1;"/>
   <line x1="250" y1="632" x2="906" y2="575" style="stroke:#0b0;stroke-width:1;"/>
   <line x1="247.5" y1="632" x2="243.96446609407" y2="635.53553390593" style="stroke:#0b0;stroke-width:2;"/>
   <line x1="247.5" y1="632" x2="243.96446609407" y2="628.46446609407" style="stroke:#0b0;stroke-width:2;"/>
   <line x1="911" y1="575" x2="907.46446609407" y2="578.53553390593" style="stroke:#0b0;stroke-width:2;"/>
   <line x1="911" y1="575" x2="907.46446609407" y2="571.46446609407" style="stroke:#0b0;stroke-width:2;"/>
   <rect width="81" height="20" x="900" y="134" style="fill:#007;stroke:black;"/>
   <text width="81" height="20" x="905" y="148" style="fill:#fff;" font-family="Arial" font-size="16px"> clients</text>
   <rect width="81" height="20" x="900" y="154" style="fill:#aea;stroke:black;"/>
   <text width="81" height="20" x="905" y="168" style="fill:black;" font-family="Arial" font-size="16px">client_id</text>
   <rect width="81" height="20" x="900" y="174" style="fill:none;stroke:black;"/>
   <text width="81" height="20" x="905" y="188" style="fill:black;" font-family="Arial" font-size="16px">first_name</text>
   <rect width="81" height="20" x="900" y="194" style="fill:none;stroke:black;"/>
   <text width="81" height="20" x="905" y="208" style="fill:black;" font-family="Arial" font-size="16px">last_name</text>
   <rect width="81" height="20" x="900" y="214" style="fill:none;stroke:black;"/>
   <text width="81" height="20" x="905" y="228" style="fill:black;" font-family="Arial" font-size="16px">phone</text>
   <rect width="81" height="20" x="900" y="234" style="fill:none;stroke:black;"/>
   <text width="81" height="20" x="905" y="248" style="fill:black;" font-family="Arial" font-size="16px">email</text>
   <rect width="90" height="20" x="916" y="545" style="fill:#007;stroke:black;"/>
   <text width="90" height="20" x="921" y="559" style="fill:#fff;" font-family="Arial" font-size="16px"> orders</text>
   <rect width="90" height="20" x="916" y="565" style="fill:#aea;stroke:black;"/>
   <text width="90" height="20" x="921" y="579" style="fill:black;" font-family="Arial" font-size="16px">order_id</text>
   <rect width="90" height="20" x="916" y="585" style="fill:none;stroke:black;"/>
   <text width="90" height="20" x="921" y="599" style="fill:black;" font-family="Arial" font-size="16px">client_id</text>
   <rect width="90" height="20" x="916" y="605" style="fill:none;stroke:black;"/>
   <text width="90" height="20" x="921" y="619" style="fill:black;" font-family="Arial" font-size="16px">veterinar_id</text>
   <rect width="90" height="20" x="916" y="625" style="fill:none;stroke:black;"/>
   <text width="90" height="20" x="921" y="639" style="fill:black;" font-family="Arial" font-size="16px">service_id</text>
   <rect width="90" height="20" x="916" y="645" style="fill:none;stroke:black;"/>
   <text width="90" height="20" x="921" y="659" style="fill:black;" font-family="Arial" font-size="16px">order_date</text>
   <rect width="90" height="20" x="916" y="665" style="fill:none;stroke:black;"/>
   <text width="90" height="20" x="921" y="679" style="fill:black;" font-family="Arial" font-size="16px">start_time</text>
   <rect width="90" height="20" x="916" y="685" style="fill:none;stroke:black;"/>
   <text width="90" height="20" x="921" y="699" style="fill:black;" font-family="Arial" font-size="16px">end_time</text>
   <rect width="90" height="20" x="916" y="705" style="fill:none;stroke:black;"/>
   <text width="90" height="20" x="921" y="719" style="fill:black;" font-family="Arial" font-size="16px">comment</text>
   <rect width="90" height="20" x="150" y="542" style="fill:#007;stroke:black;"/>
   <text width="90" height="20" x="155" y="556" style="fill:#fff;" font-family="Arial" font-size="16px"> revies</text>
   <rect width="90" height="20" x="150" y="562" style="fill:#aea;stroke:black;"/>
   <text width="90" height="20" x="155" y="576" style="fill:black;" font-family="Arial" font-size="16px">review_id</text>
   <rect width="90" height="20" x="150" y="582" style="fill:none;stroke:black;"/>
   <text width="90" height="20" x="155" y="596" style="fill:black;" font-family="Arial" font-size="16px">client_id</text>
   <rect width="90" height="20" x="150" y="602" style="fill:none;stroke:black;"/>
   <text width="90" height="20" x="155" y="616" style="fill:black;" font-family="Arial" font-size="16px">veterinar_id</text>
   <rect width="90" height="20" x="150" y="622" style="fill:none;stroke:black;"/>
   <text width="90" height="20" x="155" y="636" style="fill:black;" font-family="Arial" font-size="16px">order_id</text>
   <rect width="90" height="20" x="150" y="642" style="fill:none;stroke:black;"/>
   <text width="90" height="20" x="155" y="656" style="fill:black;" font-family="Arial" font-size="16px">raiting</text>
   <rect width="90" height="20" x="150" y="662" style="fill:none;stroke:black;"/>
   <text width="90" height="20" x="155" y="676" style="fill:black;" font-family="Arial" font-size="16px">comment</text>
   <rect width="78" height="20" x="224" y="345" style="fill:#007;stroke:black;"/>
   <text width="78" height="20" x="229" y="359" style="fill:#fff;" font-family="Arial" font-size="16px"> roles</text>
   <rect width="78" height="20" x="224" y="365" style="fill:#aea;stroke:black;"/>
   <text width="78" height="20" x="229" y="379" style="fill:black;" font-family="Arial" font-size="16px">id</text>
   <rect width="78" height="20" x="224" y="385" style="fill:none;stroke:black;"/>
   <text width="78" height="20" x="229" y="399" style="fill:black;" font-family="Arial" font-size="16px">name</text>
   <rect width="78" height="20" x="224" y="405" style="fill:none;stroke:black;"/>
   <text width="78" height="20" x="229" y="419" style="fill:black;" font-family="Arial" font-size="16px">password</text>
   <rect width="88" height="20" x="245" y="127" style="fill:#007;stroke:black;"/>
   <text width="88" height="20" x="250" y="141" style="fill:#fff;" font-family="Arial" font-size="16px"> services</text>
   <rect width="88" height="20" x="245" y="147" style="fill:#aea;stroke:black;"/>
   <text width="88" height="20" x="250" y="161" style="fill:black;" font-family="Arial" font-size="16px">service_id</text>
   <rect width="88" height="20" x="245" y="167" style="fill:none;stroke:black;"/>
   <text width="88" height="20" x="250" y="181" style="fill:black;" font-family="Arial" font-size="16px">name</text>
   <rect width="88" height="20" x="245" y="187" style="fill:none;stroke:black;"/>
   <text width="88" height="20" x="250" y="201" style="fill:black;" font-family="Arial" font-size="16px">description</text>
   <rect width="88" height="20" x="245" y="207" style="fill:none;stroke:black;"/>
   <text width="88" height="20" x="250" y="221" style="fill:black;" font-family="Arial" font-size="16px">price</text>
   <rect width="112" height="20" x="546" y="649" style="fill:#007;stroke:black;"/>
   <text width="112" height="20" x="551" y="663" style="fill:#fff;" font-family="Arial" font-size="16px"> veterinars</text>
   <rect width="112" height="20" x="546" y="669" style="fill:#aea;stroke:black;"/>
   <text width="112" height="20" x="551" y="683" style="fill:black;" font-family="Arial" font-size="16px">veterinar_id</text>
   <rect width="112" height="20" x="546" y="689" style="fill:none;stroke:black;"/>
   <text width="112" height="20" x="551" y="703" style="fill:black;" font-family="Arial" font-size="16px">first_name</text>
   <rect width="112" height="20" x="546" y="709" style="fill:none;stroke:black;"/>
   <text width="112" height="20" x="551" y="723" style="fill:black;" font-family="Arial" font-size="16px">last_name</text>
   <rect width="112" height="20" x="546" y="729" style="fill:none;stroke:black;"/>
   <text width="112" height="20" x="551" y="743" style="fill:black;" font-family="Arial" font-size="16px">specialozation</text>
   <rect width="112" height="20" x="546" y="749" style="fill:none;stroke:black;"/>
   <text width="112" height="20" x="551" y="763" style="fill:black;" font-family="Arial" font-size="16px">phone</text>
   <rect width="112" height="20" x="546" y="769" style="fill:none;stroke:black;"/>
   <text width="112" height="20" x="551" y="783" style="fill:black;" font-family="Arial" font-size="16px">email</text>
</svg>
